<?xml version="1.0" standalone="no"?><!DOCTYPE svg PUBLIC "-//W3C//DTD SVG 1.1//EN" "http://www.w3.org/Graphics/SVG/1.1/DTD/svg11.dtd"><svg t="1603471087066" class="icon" viewBox="0 0 1024 1024" version="1.1" xmlns="http://www.w3.org/2000/svg" p-id="15785" width="128" height="128" xmlns:xlink="http://www.w3.org/1999/xlink"><defs><style type="text/css"></style></defs><path d="M273.939069 568.336076 87.095637 459.083813 87.095637 253.618255 273.939069 353.487823Z" p-id="15786" fill="#ffffff"></path><path d="M501.890758 708.664102 297.167097 588.956719 297.167097 374.108466 501.890758 483.535715Z" p-id="15787" fill="#ffffff"></path><path d="M273.939069 811.274084 87.095637 692.641173 87.095637 487.208361 273.939069 596.460624Z" p-id="15788" fill="#ffffff"></path><path d="M501.890758 961.881221 297.167097 831.894727 297.167097 617.081267 501.890758 736.788649Z" p-id="15789" fill="#ffffff"></path><path d="M726.83188 588.960813 522.116405 708.664102 522.116405 483.535715 726.83188 374.11256Z" p-id="15790" fill="#ffffff"></path><path d="M936.904363 472.203622 750.060931 581.455885 750.060931 366.607632 936.904363 266.73704Z" p-id="15791" fill="#ffffff"></path><path d="M726.839043 831.894727 522.116405 961.881221 522.116405 736.788649 726.839043 617.081267Z" p-id="15792" fill="#ffffff"></path><path d="M936.904363 705.760982 750.068094 824.390823 750.068094 609.577363 936.904363 500.32817Z" p-id="15793" fill="#ffffff"></path><path d="M492.947062 243.930615 305.355593 152.418388 101.388155 243.927545 288.230564 343.798137Z" p-id="15794" fill="#ffffff"></path><path d="M699.591469 146.280598 512 62.117756 324.408531 146.280598 512 237.792824Z" p-id="15795" fill="#ffffff"></path><path d="M926.791028 246.11742 722.815403 154.60417 535.224957 246.11742 739.948619 345.988012Z" p-id="15796" fill="#ffffff"></path><path d="M716.719568 353.491916 511.995907 253.621325 307.280432 353.487823 512.004093 462.916095Z" p-id="15797" fill="#ffffff"></path></svg>